<svg xmlns="http://www.w3.org/2000/svg" viewBox="0 0 512 512" style="height: 512px; width: 512px;"><defs><radialGradient id="delapouite-azul-flake-gradient-0"><stop offset="0%" stop-color="#4a90e2" stop-opacity="1"></stop><stop offset="100%" stop-color="#48baff" stop-opacity="1"></stop></radialGradient><radialGradient id="delapouite-azul-flake-gradient-1"><stop offset="0%" stop-color="#fc88fc" stop-opacity="1"></stop><stop offset="100%" stop-color="#9013fe" stop-opacity="1"></stop></radialGradient></defs><g class="" transform="translate(0,0)" style=""><path d="M128 16v99.3l119 118.9V120.1L128 16zm256 0L265 120.1v114.1l119-119V16zM16 128l104 119h114.2L115.3 128H16zm380.8 0l-119 119h114.1l104-119h-99.1zM120 265L16 384h99.2l119-119H120zm157.8 0l119 119h99.1l-104-119H277.8zM247 277.8l-119 119V496l119-104.1V277.8zm18 0v114.1L384 496v-99.2l-119-119z" fill="url(#delapouite-azul-flake-gradient-1)"></path></g></svg>